<svg xmlns="http://www.w3.org/2000/svg" viewBox="0 0 425.87 68.35"><defs><style>.cls-1{fill:#0f0f0f;}</style></defs><g id="Camada_2" data-name="Camada 2"><g id="Camada_4" data-name="Camada 4"><rect class="cls-1" x="100.92" y="28.84" width="24.8" height="10.65"/><rect class="cls-1" x="401.83" y="28.84" width="24.03" height="10.65"/><polygon class="cls-1" points="64.53 1 35.68 67.34 24.22 67.34 0 1 14.66 1 28.64 43.21 30.8 50.57 50.24 1 64.53 1"/><path class="cls-1" d="M195.49,67.34H179.91L164.35,41.91l-2.23-3.61V31.93c9.13,0,10.52-1.36,12.42-2.94s2.87-4,2.87-7.29-1-5.7-2.87-7.27-4.82-2.36-8.69-2.36h-14V67.34H138.21V1h29.24c7.5,0,13.41,1.81,17.69,5.42s6.44,8.5,6.44,14.58c0,6.51-2.16,11.49-6.44,14.94a21.23,21.23,0,0,1-7.57,3.84Z"/><path class="cls-1" d="M253.83,36.24q-4.26-4.38-14.12-6.6l-5-1.11-7.4-1.69c-3.41-.81-5.84-1.83-7.23-3.08A5.83,5.83,0,0,1,218,19.19a6.91,6.91,0,0,1,1.25-4,8.65,8.65,0,0,1,4-2.92,19,19,0,0,1,7-1.09,24.93,24.93,0,0,1,11.33,2.45,23.44,23.44,0,0,1,4.86,3.22l8.31-8.31a30.4,30.4,0,0,0-8.1-5.42A38.34,38.34,0,0,0,230.77,0a34.92,34.92,0,0,0-14.63,2.76,21.82,21.82,0,0,0-9.29,7.47,18.58,18.58,0,0,0-3.21,10.68,16,16,0,0,0,2.15,8.47,16,16,0,0,0,6.34,5.84,42.18,42.18,0,0,0,10,3.68l1.82.42,11.63,2.59c3.22.67,5.39,1.64,6.53,2.92a6.34,6.34,0,0,1,1.71,4.42,6.27,6.27,0,0,1-1.5,4.26A9.61,9.61,0,0,1,238,56.24a22,22,0,0,1-6.88.95,28.9,28.9,0,0,1-9.19-1.46,27.72,27.72,0,0,1-7.8-4c-.53-.39-1-.76-1.44-1.11l-8.52,8.52a32.41,32.41,0,0,0,3.94,3,39.16,39.16,0,0,0,10.3,4.56,45.36,45.36,0,0,0,12.71,1.67,37.5,37.5,0,0,0,14.08-2.48,21.17,21.17,0,0,0,9.54-7.13,18.53,18.53,0,0,0,3.43-11.2A15.45,15.45,0,0,0,253.83,36.24Z"/><path class="cls-1" d="M271.27,1V67.33h13.87V1Z"/><path class="cls-1" d="M352.2,9.59Q343.65,1,328.07,1H302.44V67.34h25.63q15.6,0,24.13-8.64t8.54-24.52Q360.74,18.21,352.2,9.59Zm-10.61,41q-4.79,5.68-14.21,5.69H316.31V12.07h11.07c6.29,0,11,1.87,14.21,5.67s4.77,9.26,4.77,16.44S344.76,46.82,341.59,50.6Z"/><polygon class="cls-1" points="88.44 12.16 125.72 12.16 125.72 0.99 74.58 0.99 74.58 67.33 125.72 67.33 125.72 56.17 88.44 56.17 88.44 44.18 88.44 39.29 88.44 28.64 88.44 25.21 88.44 12.16"/><polygon class="cls-1" points="425.87 12.16 425.87 0.99 374.7 0.99 374.7 67.33 425.87 67.33 425.87 56.17 388.57 56.17 388.57 39.29 388.57 28.64 388.57 12.16 425.87 12.16"/></g></g></svg>