<svg xmlns="http://www.w3.org/2000/svg" viewBox="0 0 731.71 199.87"><defs><style>.cls-1{fill:#0f0f0f;}</style></defs><g id="Camada_2" data-name="Camada 2"><g id="Camada_4" data-name="Camada 4"><path class="cls-1" d="M260.76,65.8,204.87,9.91l-4.56-4.56L195,0,131.61,63.35,68.26,0,65.8,2.45,57.65,10.6,11.55,56.7l-9.1,9.1L0,68.26,131.61,199.87,253.17,78.31l7.59-7.6,2.46-2.45ZM135.08,69.69l56.41-56.41V66.81l1-1-57.42,57.43ZM71.73,13.29l56.4,56.4v53.54L71.73,66.82Zm-61.91,55,55-55V66.82L36.58,95ZM131.61,190.05,41.49,99.93,68.26,73.17l57.44,57.47,5.91,5.9,2.45-2.48,3.52-3.52L195,73.17l26.76,26.76Zm95-95L197.41,65.8l1,1V13.28l55,55Z"/><rect class="cls-1" x="406.76" y="94.59" width="24.8" height="10.65"/><rect class="cls-1" x="707.67" y="94.59" width="24.03" height="10.65"/><polygon class="cls-1" points="370.37 66.75 341.52 133.09 330.06 133.09 305.84 66.75 320.49 66.75 334.48 108.96 336.63 116.32 356.08 66.75 370.37 66.75"/><path class="cls-1" d="M501.33,133.09H485.75l-15.56-25.43L468,104.05V97.68c9.13,0,10.52-1.36,12.41-2.94s2.87-4,2.87-7.29-1-5.7-2.87-7.27-4.81-2.36-8.68-2.36h-14v55.27H444V66.75h29.25q11.25,0,17.69,5.42c4.28,3.63,6.44,8.49,6.44,14.58,0,6.51-2.16,11.49-6.44,14.94a21.31,21.31,0,0,1-7.57,3.84Z"/><path class="cls-1" d="M559.67,102q-4.27-4.38-14.12-6.6l-5-1.11-7.41-1.69c-3.4-.82-5.83-1.83-7.22-3.08a5.83,5.83,0,0,1-2.11-4.57,6.91,6.91,0,0,1,1.25-4,8.65,8.65,0,0,1,4-2.92,19,19,0,0,1,7-1.09,24.89,24.89,0,0,1,11.32,2.45,23.24,23.24,0,0,1,4.87,3.22l8.31-8.31a30.29,30.29,0,0,0-8.11-5.42,38.26,38.26,0,0,0-15.88-3.1A35.05,35.05,0,0,0,522,68.5,21.78,21.78,0,0,0,512.69,76a18.59,18.59,0,0,0-3.22,10.68A15.26,15.26,0,0,0,518,101a42.09,42.09,0,0,0,10,3.68l1.83.42,11.63,2.59q4.82,1,6.53,2.92a6.38,6.38,0,0,1,1.71,4.42,6.23,6.23,0,0,1-1.51,4.26,9.52,9.52,0,0,1-4.37,2.73,22,22,0,0,1-6.88,1,28.9,28.9,0,0,1-9.19-1.46,27.72,27.72,0,0,1-7.8-4c-.54-.39-1-.77-1.44-1.11L510,124.91a31.65,31.65,0,0,0,3.94,3,39,39,0,0,0,10.3,4.56,45.68,45.68,0,0,0,12.71,1.67A37.5,37.5,0,0,0,551,131.62a21.22,21.22,0,0,0,9.54-7.13A18.54,18.54,0,0,0,564,113.28,15.44,15.44,0,0,0,559.67,102Z"/><path class="cls-1" d="M577.11,66.75v66.33H591V66.75Z"/><path class="cls-1" d="M658,75.34q-8.55-8.58-24.13-8.59H608.28v66.34h25.63q15.58,0,24.13-8.64t8.54-24.52Q666.58,84,658,75.34Zm-10.61,41Q642.65,122,633.21,122H622.15V77.82h11.06c6.3,0,11,1.87,14.22,5.67s4.77,9.26,4.77,16.44S650.6,112.57,647.43,116.35Z"/><polygon class="cls-1" points="394.28 77.91 431.56 77.91 431.56 66.75 380.41 66.75 380.41 133.08 431.56 133.08 431.56 121.92 394.28 121.92 394.28 109.93 394.28 105.04 394.28 94.39 394.28 90.96 394.28 77.91"/><polygon class="cls-1" points="731.71 77.91 731.71 66.75 680.54 66.75 680.54 133.08 731.71 133.08 731.71 121.92 694.41 121.92 694.41 105.04 694.41 94.39 694.41 77.91 731.71 77.91"/></g></g></svg>