<svg xmlns="http://www.w3.org/2000/svg" viewBox="0 0 263.22 199.87"><defs><style>.cls-1{fill:#0f0f0f;}</style></defs><g id="Camada_2" data-name="Camada 2"><g id="Camada_4" data-name="Camada 4"><path class="cls-1" d="M260.76,65.8,204.87,9.91l-4.56-4.56L195,0,131.61,63.35,68.26,0,65.8,2.45,57.65,10.6,11.55,56.7l-9.1,9.1L0,68.26,131.61,199.87,253.17,78.31l7.59-7.6,2.46-2.45ZM135.08,69.69l56.41-56.41V66.81l1-1-57.42,57.43ZM71.73,13.29l56.4,56.4v53.54L71.73,66.82Zm-61.91,55,55-55V66.82L36.58,95ZM131.61,190.05,41.49,99.93,68.26,73.17l57.44,57.47,5.91,5.9,2.45-2.48,3.52-3.52L195,73.17l26.76,26.76Zm95-95L197.41,65.8l1,1V13.28l55,55Z"/></g></g></svg>