<svg xmlns="http://www.w3.org/2000/svg" viewBox="0 0 425.86 309.26"><defs><style>.cls-1{fill:#0f0f0f;}</style></defs><g id="Camada_2" data-name="Camada 2"><g id="Camada_4" data-name="Camada 4"><path class="cls-1" d="M342.08,65.8,286.19,9.91l-4.56-4.56L276.28,0,212.93,63.35,149.58,0l-2.45,2.45L139,10.6,92.88,56.7l-9.1,9.1-2.46,2.46L212.93,199.87,334.49,78.31l7.59-7.6,2.46-2.45ZM216.4,69.69l56.42-56.41V66.81l1-1L216.4,123.23Zm-63.35-56.4,56.41,56.4v53.54L153.05,66.82Zm-61.91,55,55-55V66.82L117.91,95ZM212.93,190.05,122.81,99.93l26.77-26.76L207,130.64l5.9,5.9,2.45-2.48,3.52-3.52,57.38-57.37,26.77,26.76Zm95-95L278.73,65.8l1,1V13.28l55,55Z"/><polygon class="cls-1" points="64.53 241.89 35.68 308.23 24.22 308.23 0 241.89 14.66 241.89 28.64 284.1 30.8 291.46 50.24 241.89 64.53 241.89"/><path class="cls-1" d="M195.47,308.23H179.91L164.35,282.8l-2.22-3.61v-6.37c9.12,0,10.51-1.36,12.41-2.94s2.87-4,2.87-7.29-1-5.7-2.87-7.27-4.82-2.36-8.69-2.36h-14v55.27H138.21V241.89h29.24c7.5,0,13.41,1.81,17.69,5.42s6.41,8.5,6.41,14.59q0,9.75-6.41,14.93a21.23,21.23,0,0,1-7.57,3.84Z"/><path class="cls-1" d="M253.83,277.14q-4.28-4.36-14.13-6.6l-4.95-1.11-7.41-1.69c-3.41-.81-5.84-1.83-7.23-3.08a5.79,5.79,0,0,1-2.1-4.56,6.89,6.89,0,0,1,1.25-4,8.7,8.7,0,0,1,4-2.92,19.11,19.11,0,0,1,7-1.08,24.91,24.91,0,0,1,11.32,2.45,23.17,23.17,0,0,1,4.86,3.22l8.31-8.31a30.08,30.08,0,0,0-8.1-5.42,38.26,38.26,0,0,0-15.88-3.1,35.1,35.1,0,0,0-14.64,2.75,21.74,21.74,0,0,0-9.28,7.48,18.48,18.48,0,0,0-3.22,10.67,15.19,15.19,0,0,0,8.5,14.31,41.5,41.5,0,0,0,10,3.69l1.83.41,11.62,2.6q4.83,1,6.53,2.91a6.38,6.38,0,0,1,1.71,4.43,6.24,6.24,0,0,1-1.5,4.26,9.61,9.61,0,0,1-4.38,2.73,22.25,22.25,0,0,1-6.87,1,29,29,0,0,1-9.2-1.46,27.85,27.85,0,0,1-7.8-4c-.53-.4-1-.77-1.43-1.12l-8.52,8.53a33.35,33.35,0,0,0,3.93,3,39.16,39.16,0,0,0,10.3,4.56,45.8,45.8,0,0,0,12.72,1.67,37.61,37.61,0,0,0,14.07-2.48,21.24,21.24,0,0,0,9.54-7.13,18.58,18.58,0,0,0,3.43-11.21A15.52,15.52,0,0,0,253.83,277.14Z"/><path class="cls-1" d="M271.26,241.9v66.34h13.87V241.9Z"/><path class="cls-1" d="M352.2,250.48q-8.55-8.58-24.13-8.59H302.44v66.34h25.63q15.6,0,24.13-8.64t8.54-24.52Q360.74,259.1,352.2,250.48Zm-10.61,41q-4.79,5.68-14.21,5.69H316.29V253h11.09c6.29,0,11,1.87,14.21,5.67s4.77,9.26,4.77,16.44S344.76,287.71,341.59,291.49Z"/><rect class="cls-1" x="401.83" y="269.74" width="24.03" height="10.65"/><polygon class="cls-1" points="88.44 253.06 125.72 253.06 125.72 241.9 74.57 241.9 74.57 308.24 125.72 308.24 125.72 297.08 88.44 297.08 88.44 285.08 88.44 280.2 88.44 269.55 88.44 266.12 88.44 253.06"/><polygon class="cls-1" points="425.86 253.06 425.86 241.9 374.69 241.9 374.69 308.24 425.86 308.24 425.86 297.08 388.56 297.08 388.56 280.2 388.56 269.55 388.56 253.06 425.86 253.06"/><rect class="cls-1" x="100.92" y="269.65" width="24.8" height="10.65"/></g></g></svg>